<?xml version="1.0" standalone="no"?><!DOCTYPE svg PUBLIC "-//W3C//DTD SVG 1.1//EN" "http://www.w3.org/Graphics/SVG/1.1/DTD/svg11.dtd"><svg t="1718250959497" class="icon" viewBox="0 0 1024 1024" version="1.1" xmlns="http://www.w3.org/2000/svg" p-id="19463" xmlns:xlink="http://www.w3.org/1999/xlink" width="200" height="200">
<path d="M67.05879 287.384289 290.651194 287.384289 290.651194 63.791885 67.05879 63.791885 67.05879 287.384289Z" p-id="19464"></path>
<path d="M67.05879 958.161503 290.651194 958.161503 290.651194 734.569098 67.05879 734.569098 67.05879 958.161503Z" p-id="19466"></path>
<path d="M67.05879 622.772896 290.651194 622.772896 290.651194 399.180492 67.05879 399.180492 67.05879 622.772896Z" p-id="19467"></path>
<path d="M402.447397 622.772896 626.038778 622.772896 626.038778 399.180492 402.447397 399.180492 402.447397 622.772896Z" p-id="19468"></path>
<path d="M737.83498 63.791885 737.83498 287.384289 961.427384 287.384289 961.427384 63.791885 737.83498 63.791885Z" p-id="19469"></path>
<path d="M402.447397 287.384289 626.038778 287.384289 626.038778 63.791885 402.447397 63.791885 402.447397 287.384289Z" p-id="19470"></path>
<path d="M737.83498 622.772896 961.427384 622.772896 961.427384 399.180492 737.83498 399.180492 737.83498 622.772896Z" p-id="19471"></path>
</svg>