<?xml version="1.0" standalone="no"?><!DOCTYPE svg PUBLIC "-//W3C//DTD SVG 1.1//EN" "http://www.w3.org/Graphics/SVG/1.1/DTD/svg11.dtd"><svg t="1718100159954" class="icon" viewBox="0 0 1024 1024" version="1.1" xmlns="http://www.w3.org/2000/svg" p-id="1464" xmlns:xlink="http://www.w3.org/1999/xlink" width="200" height="200"><path d="M851.371648 456.288123c-43.549425 0-79.252107 35.310345-79.252108 79.252107 0 43.549425 35.310345 79.252107 79.252108 79.252107 43.549425 0 79.252107-35.310345 79.252107-79.252107-0.392337-43.941762-35.702682-79.252107-79.252107-79.252107zM179.690421 456.288123c-43.549425 0-79.252107 35.310345-79.252107 79.252107 0 43.549425 35.310345 79.252107 79.252107 79.252107 43.549425 0 79.252107-35.310345 79.252108-79.252107-0.392337-43.941762-35.702682-79.252107-79.252108-79.252107zM193.029885 553.980077v-38.449043" fill="#0C0C0C" p-id="1465"></path><path d="M216.09931 516.888521L701.957885 269.143295l19.07151 37.397579L235.174743 554.293946z" fill="#0C0C0C" p-id="1466"></path></svg>