<?xml version="1.0" standalone="no"?><!DOCTYPE svg PUBLIC "-//W3C//DTD SVG 1.1//EN" "http://www.w3.org/Graphics/SVG/1.1/DTD/svg11.dtd"><svg t="1718100164701" class="icon" viewBox="0 0 1024 1024" version="1.1" xmlns="http://www.w3.org/2000/svg" p-id="1612" xmlns:xlink="http://www.w3.org/1999/xlink" width="200" height="200"><path d="M851.371648 456.288123c-43.549425 0-79.252107 35.310345-79.252108 79.252107 0 43.549425 35.310345 79.252107 79.252108 79.252107 43.549425 0 79.252107-35.310345 79.252107-79.252107-0.392337-43.941762-35.702682-79.252107-79.252107-79.252107zM179.690421 456.288123c-43.549425 0-79.252107 35.310345-79.252107 79.252107 0 43.549425 35.310345 79.252107 79.252107 79.252107 43.549425 0 79.252107-35.310345 79.252108-79.252107-0.392337-43.941762-35.702682-79.252107-79.252108-79.252107zM193.029885 553.980077v-38.449043" fill="#0C0C0C" p-id="1613"></path><path d="M244.426054 514.74636h545.348659v41.980077h-545.348659z" fill="#0C0C0C" p-id="1614"></path></svg>