<?xml version="1.0" standalone="no"?><!DOCTYPE svg PUBLIC "-//W3C//DTD SVG 1.1//EN" "http://www.w3.org/Graphics/SVG/1.1/DTD/svg11.dtd"><svg t="1718097892093" class="icon" viewBox="0 0 1152 1024" version="1.1" xmlns="http://www.w3.org/2000/svg" p-id="4254" xmlns:xlink="http://www.w3.org/1999/xlink" width="225" height="200"><path d="M1088 128l-64 0 0-64c0-35.2-28.8-64-64-64l-896 0c-35.2 0-64 28.8-64 64l0 768c0 35.2 28.8 64 64 64l64 0 0 64c0 35.2 28.8 64 64 64l896 0c35.2 0 64-28.8 64-64l0-768c0-35.2-28.8-64-64-64zM128 192l0 640-63.888 0c-0.048-0.032-0.08-0.08-0.112-0.112l0-767.776c0.032-0.048 0.08-0.08 0.112-0.112l895.776 0c0.032 0.032 0.08 0.08 0.112 0.112l0 63.888-768 0c-35.2 0-64 28.8-64 64l0 0zM1088 959.888c-0.032 0.032-0.08 0.08-0.112 0.112l-895.776 0c-0.032-0.032-0.08-0.08-0.112-0.112l0-767.776c0.032-0.032 0.08-0.08 0.112-0.112l895.776 0c0.032 0.032 0.08 0.08 0.112 0.112l0 767.776z" fill="#000000" p-id="4255"></path><path d="M960 352c0 53.024-42.976 96-96 96s-96-42.976-96-96 42.976-96 96-96 96 42.976 96 96z" fill="#000000" p-id="4256"></path><path d="M1024 896l-768 0 0-128 224-384 256 320 64 0 224-192z" fill="#000000" p-id="4257"></path></svg>