<?xml version="1.0" standalone="no"?><!DOCTYPE svg PUBLIC "-//W3C//DTD SVG 1.1//EN" "http://www.w3.org/Graphics/SVG/1.1/DTD/svg11.dtd"><svg t="1714726071872" class="icon" viewBox="0 0 1024 1024" version="1.1" xmlns="http://www.w3.org/2000/svg" p-id="50353" xmlns:xlink="http://www.w3.org/1999/xlink" width="200" height="200"><path d="M192 170.666667a21.333333 21.333333 0 0 0-21.333333 21.333333v640a21.333333 21.333333 0 0 0 21.333333 21.333333h640a21.333333 21.333333 0 0 0 21.333333-21.333333V192a21.333333 21.333333 0 0 0-21.333333-21.333333H192zM85.333333 192a106.666667 106.666667 0 0 1 106.666667-106.666667h640a106.666667 106.666667 0 0 1 106.666667 106.666667v640a106.666667 106.666667 0 0 1-106.666667 106.666667H192a106.666667 106.666667 0 0 1-106.666667-106.666667V192z" p-id="50354"></path><path d="M85.333333 362.666667a42.666667 42.666667 0 0 1 42.666667-42.666667h768a42.666667 42.666667 0 1 1 0 85.333333H128a42.666667 42.666667 0 0 1-42.666667-42.666666z" p-id="50355"></path><path d="M362.666667 320a42.666667 42.666667 0 0 1 42.666666 42.666667v533.333333a42.666667 42.666667 0 1 1-85.333333 0V362.666667a42.666667 42.666667 0 0 1 42.666667-42.666667z" p-id="50356"></path></svg>