<?xml version="1.0" standalone="no"?><!DOCTYPE svg PUBLIC "-//W3C//DTD SVG 1.1//EN" "http://www.w3.org/Graphics/SVG/1.1/DTD/svg11.dtd"><svg t="1714727065395" class="icon" viewBox="0 0 1024 1024" version="1.1" xmlns="http://www.w3.org/2000/svg" p-id="59693" xmlns:xlink="http://www.w3.org/1999/xlink" width="200" height="200"><path d="M363.946667 513.28a32 32 0 1 0-45.226667-45.226667l-85.333333 85.333334a32 32 0 0 0 0 45.226666l85.333333 85.333334a32 32 0 0 0 45.226667-45.226667L301.226667 576l62.72-62.72zM660.053333 683.946667a32 32 0 0 1 0-45.226667l62.72-62.72-62.72-62.72a32 32 0 1 1 45.226667-45.226667l85.333333 85.333334a32 32 0 0 1 0 45.226666l-85.333333 85.333334a32 32 0 0 1-45.226667 0zM564.224 477.738667a32 32 0 1 0-61.781333-16.810667l-64 234.666667a32 32 0 1 0 61.781333 16.810666l64-234.666666z" fill="#1D2129" p-id="59694"></path><path d="M157.866667 149.333333A72.533333 72.533333 0 0 0 85.333333 221.866667v580.266666a72.533333 72.533333 0 0 0 72.533334 72.533334h708.266666a72.533333 72.533333 0 0 0 72.533334-72.533334V221.866667a72.533333 72.533333 0 0 0-72.533334-72.533334H157.866667z m708.266666 72.533334v87.466666H157.866667V221.866667h708.266666zM157.866667 802.133333V373.333333h708.266666V802.133333H157.866667z" fill="#1D2129" p-id="59695"></path></svg>